<svg width="787" height="787" viewBox="0 0 787 787" fill="none" xmlns="http://www.w3.org/2000/svg">
<rect x="294" y="631" width="200" height="150" fill="url(#paint0_linear_49_85)"/>
<path d="M386 435L363.861 453.526L390.975 463.436L386 435ZM311.652 631.142C311.178 632.439 311.845 633.874 313.142 634.348C314.439 634.822 315.874 634.155 316.348 632.858L311.652 631.142ZM375.928 455.275L311.652 631.142L316.348 632.858L380.624 456.991L375.928 455.275Z" fill="#FF3832"/>
<path d="M402 435L424.252 453.39L397.2 463.466L402 435ZM477.343 630.127C477.825 631.421 477.166 632.861 475.873 633.343C474.579 633.825 473.139 633.166 472.657 631.873L477.343 630.127ZM412.196 455.212L477.343 630.127L472.657 631.873L407.51 456.958L412.196 455.212Z" fill="#407BFF"/>
<rect x="294" y="631" width="40" height="150" fill="url(#paint1_linear_49_85)"/>
<rect x="454" y="631" width="40" height="150" fill="url(#paint2_linear_49_85)"/>
<path d="M394 435L570.669 108.75H217.331L394 435Z" fill="url(#paint3_linear_49_85)"/>
<defs>
<linearGradient id="paint0_linear_49_85" x1="394" y1="631" x2="394" y2="781" gradientUnits="userSpaceOnUse">
<stop stop-color="#19212D"/>
<stop offset="1" stop-color="#526C93" stop-opacity="0"/>
</linearGradient>
<linearGradient id="paint1_linear_49_85" x1="314" y1="631" x2="314" y2="781" gradientUnits="userSpaceOnUse">
<stop stop-color="#FF3832"/>
<stop offset="1" stop-color="#737373" stop-opacity="0"/>
</linearGradient>
<linearGradient id="paint2_linear_49_85" x1="474" y1="631" x2="474" y2="781" gradientUnits="userSpaceOnUse">
<stop stop-color="#407BFF"/>
<stop offset="1" stop-color="#737373" stop-opacity="0"/>
</linearGradient>
<linearGradient id="paint3_linear_49_85" x1="394" y1="124.577" x2="394" y2="435" gradientUnits="userSpaceOnUse">
<stop stop-color="#D9D9D9" stop-opacity="0"/>
<stop offset="1" stop-color="#FF9726"/>
</linearGradient>
</defs>
</svg>
