<svg width="787" height="787" viewBox="0 0 787 787" fill="none" xmlns="http://www.w3.org/2000/svg">
<rect x="521" y="631" width="100" height="150" fill="url(#paint0_linear_49_86)"/>
<path d="M491 435L513.252 453.39L486.2 463.466L491 435ZM566.343 630.127C566.825 631.421 566.166 632.861 564.873 633.343C563.579 633.825 562.139 633.166 561.657 631.873L566.343 630.127ZM501.196 455.212L566.343 630.127L561.657 631.873L496.51 456.958L501.196 455.212Z" fill="#407BFF"/>
<path d="M170.5 523L212 631" stroke="url(#paint1_linear_49_86)" stroke-width="5" stroke-linecap="round"/>
<path d="M621.5 523L580 631" stroke="url(#paint2_linear_49_86)" stroke-width="5" stroke-linecap="round"/>
<path d="M300 435L277.748 453.39L304.8 463.466L300 435ZM224.657 630.127C224.175 631.421 224.834 632.861 226.127 633.343C227.421 633.825 228.861 633.166 229.343 631.873L224.657 630.127ZM289.804 455.212L224.657 630.127L229.343 631.873L294.49 456.958L289.804 455.212Z" fill="#407BFF"/>
<path d="M315 435L337.252 453.39L310.2 463.466L315 435ZM390.343 630.127C390.825 631.421 390.166 632.861 388.873 633.343C387.579 633.825 386.139 633.166 385.657 631.873L390.343 630.127ZM325.196 455.212L390.343 630.127L385.657 631.873L320.51 456.958L325.196 455.212Z" fill="#FF3832"/>
<path d="M476 435L453.748 453.39L480.8 463.466L476 435ZM400.657 630.127C400.175 631.421 400.834 632.861 402.127 633.343C403.421 633.825 404.861 633.166 405.343 631.873L400.657 630.127ZM465.804 455.212L400.657 630.127L405.343 631.873L470.49 456.958L465.804 455.212Z" fill="#FF3832"/>
<rect x="345" y="631" width="100" height="150" fill="url(#paint3_linear_49_86)"/>
<rect x="375" y="631" width="40" height="150" fill="url(#paint4_linear_49_86)"/>
<rect x="551" y="631" width="40" height="150" fill="url(#paint5_linear_49_86)"/>
<rect x="170" y="631" width="100" height="150" fill="url(#paint6_linear_49_86)"/>
<rect x="200" y="631" width="40" height="150" fill="url(#paint7_linear_49_86)"/>
<path d="M305 435L481.669 108.75H128.331L305 435Z" fill="url(#paint8_linear_49_86)"/>
<path d="M483 435L659.669 108.75H306.331L483 435Z" fill="url(#paint9_linear_49_86)"/>
<defs>
<linearGradient id="paint0_linear_49_86" x1="571" y1="631" x2="571" y2="781" gradientUnits="userSpaceOnUse">
<stop stop-color="#19212D"/>
<stop offset="1" stop-color="#526C93" stop-opacity="0"/>
</linearGradient>
<linearGradient id="paint1_linear_49_86" x1="212" y1="631" x2="171" y2="523" gradientUnits="userSpaceOnUse">
<stop stop-color="#407BFF"/>
<stop offset="1" stop-color="#264A99" stop-opacity="0"/>
</linearGradient>
<linearGradient id="paint2_linear_49_86" x1="580" y1="631" x2="621" y2="523" gradientUnits="userSpaceOnUse">
<stop stop-color="#407BFF"/>
<stop offset="1" stop-color="#264A99" stop-opacity="0"/>
</linearGradient>
<linearGradient id="paint3_linear_49_86" x1="395" y1="631" x2="395" y2="781" gradientUnits="userSpaceOnUse">
<stop stop-color="#19212D"/>
<stop offset="1" stop-color="#526C93" stop-opacity="0"/>
</linearGradient>
<linearGradient id="paint4_linear_49_86" x1="395" y1="631" x2="395" y2="781" gradientUnits="userSpaceOnUse">
<stop stop-color="#FF3832"/>
<stop offset="1" stop-color="#737373" stop-opacity="0"/>
</linearGradient>
<linearGradient id="paint5_linear_49_86" x1="571" y1="631" x2="571" y2="781" gradientUnits="userSpaceOnUse">
<stop stop-color="#407BFF"/>
<stop offset="1" stop-color="#737373" stop-opacity="0"/>
</linearGradient>
<linearGradient id="paint6_linear_49_86" x1="220" y1="631" x2="220" y2="781" gradientUnits="userSpaceOnUse">
<stop stop-color="#19212D"/>
<stop offset="1" stop-color="#526C93" stop-opacity="0"/>
</linearGradient>
<linearGradient id="paint7_linear_49_86" x1="220" y1="631" x2="220" y2="781" gradientUnits="userSpaceOnUse">
<stop stop-color="#407BFF"/>
<stop offset="1" stop-color="#737373" stop-opacity="0"/>
</linearGradient>
<linearGradient id="paint8_linear_49_86" x1="305" y1="124.577" x2="305" y2="435" gradientUnits="userSpaceOnUse">
<stop stop-color="#D9D9D9" stop-opacity="0"/>
<stop offset="1" stop-color="#FF9726"/>
</linearGradient>
<linearGradient id="paint9_linear_49_86" x1="483" y1="124.577" x2="483" y2="435" gradientUnits="userSpaceOnUse">
<stop stop-color="#D9D9D9" stop-opacity="0"/>
<stop offset="1" stop-color="#FF9726"/>
</linearGradient>
</defs>
</svg>
